<mxfile host="app.diagrams.net" agent="Mozilla/5.0 (Windows NT 10.0; Win64; x64; rv:127.0) Gecko/20100101 Firefox/127.0" version="27.0.6">
  <diagram name="Page-1" id="n4BtaXwScv98Qy5UGhU8">
    <mxGraphModel dx="1426" dy="787" grid="1" gridSize="10" guides="1" tooltips="1" connect="1" arrows="1" fold="1" page="1" pageScale="1" pageWidth="850" pageHeight="1100" math="0" shadow="0">
      <root>
        <mxCell id="0" />
        <mxCell id="1" parent="0" />
        <mxCell id="NFEVLsGAsDUBxGmX6ojI-4" value="" style="rounded=0;whiteSpace=wrap;html=1;" parent="1" vertex="1">
          <mxGeometry x="200" y="20" width="690" height="70" as="geometry" />
        </mxCell>
        <mxCell id="NFEVLsGAsDUBxGmX6ojI-5" value="&lt;font style=&quot;font-size: 12px;&quot;&gt;Γραφικό Περιβάλλον&lt;/font&gt;" style="rounded=0;whiteSpace=wrap;html=1;" parent="1" vertex="1">
          <mxGeometry x="270" y="60" width="127.5" height="30" as="geometry" />
        </mxCell>
        <mxCell id="NFEVLsGAsDUBxGmX6ojI-7" value="&lt;font style=&quot;font-size: 12px;&quot;&gt;Διακομιστές&lt;/font&gt;" style="rounded=0;whiteSpace=wrap;html=1;" parent="1" vertex="1">
          <mxGeometry x="470" y="60" width="120" height="30" as="geometry" />
        </mxCell>
        <mxCell id="NFEVLsGAsDUBxGmX6ojI-9" value="&lt;font style=&quot;font-size: 12px;&quot;&gt;κέλυφος(shell)&lt;/font&gt;" style="rounded=0;whiteSpace=wrap;html=1;" parent="1" vertex="1">
          <mxGeometry x="680" y="60" width="117.5" height="30" as="geometry" />
        </mxCell>
        <mxCell id="NFEVLsGAsDUBxGmX6ojI-10" value="&lt;div role=&quot;text&quot; tabindex=&quot;0&quot; id=&quot;tw-target-text-container&quot; class=&quot;tw-ta-container tw-nfl&quot;&gt;&lt;pre dir=&quot;ltr&quot; data-ved=&quot;2ahUKEwiFv4Kh8fCMAxX07wIHHSCwFlEQ3ewLegQIBhAV&quot; aria-label=&quot;Μεταφρασμένο κείμενο: διαδικασίες χρήστη&quot; style=&quot;text-align:left&quot; id=&quot;tw-target-text&quot; data-placeholder=&quot;Μετάφραση&quot; class=&quot;tw-data-text tw-text-large tw-ta&quot;&gt;&lt;font style=&quot;font-size: 14px;&quot;&gt;διαδικασίες χρηστών&lt;/font&gt;&lt;/pre&gt;&lt;/div&gt;" style="text;html=1;align=center;verticalAlign=middle;whiteSpace=wrap;rounded=0;" parent="1" vertex="1">
          <mxGeometry x="370" y="30" width="320" height="20" as="geometry" />
        </mxCell>
        <mxCell id="NFEVLsGAsDUBxGmX6ojI-12" value="" style="rounded=0;whiteSpace=wrap;html=1;" parent="1" vertex="1">
          <mxGeometry x="190" y="140" width="660" height="90" as="geometry" />
        </mxCell>
        <mxCell id="NFEVLsGAsDUBxGmX6ojI-13" value="&lt;font style=&quot;font-size: 12px;&quot;&gt;Διαχείριση Μνήμης&lt;/font&gt;" style="rounded=0;whiteSpace=wrap;html=1;" parent="1" vertex="1">
          <mxGeometry x="290" y="200" width="107.5" height="30" as="geometry" />
        </mxCell>
        <mxCell id="NFEVLsGAsDUBxGmX6ojI-14" value="&lt;font style=&quot;font-size: 12px;&quot;&gt;Διαχείριση Επεξαργασίας&lt;/font&gt;" style="rounded=0;whiteSpace=wrap;html=1;" parent="1" vertex="1">
          <mxGeometry x="470" y="200" width="140" height="30" as="geometry" />
        </mxCell>
        <mxCell id="NFEVLsGAsDUBxGmX6ojI-15" value="&lt;font style=&quot;font-size: 12px;&quot;&gt;οδηγοί συσκευών&lt;/font&gt;" style="rounded=0;whiteSpace=wrap;html=1;" parent="1" vertex="1">
          <mxGeometry x="660" y="200" width="137.5" height="30" as="geometry" />
        </mxCell>
        <mxCell id="NFEVLsGAsDUBxGmX6ojI-16" value="&lt;font style=&quot;font-size: 14px;&quot;&gt;Linux Kernel&lt;/font&gt;" style="text;html=1;align=center;verticalAlign=middle;whiteSpace=wrap;rounded=0;" parent="1" vertex="1">
          <mxGeometry x="390" y="150" width="290" height="30" as="geometry" />
        </mxCell>
        <mxCell id="NFEVLsGAsDUBxGmX6ojI-17" value="" style="rounded=0;whiteSpace=wrap;html=1;" parent="1" vertex="1">
          <mxGeometry x="270" y="300" width="550" height="100" as="geometry" />
        </mxCell>
        <mxCell id="NFEVLsGAsDUBxGmX6ojI-18" value="&lt;font style=&quot;font-size: 14px;&quot;&gt;Hardware&lt;/font&gt;" style="text;html=1;align=center;verticalAlign=middle;whiteSpace=wrap;rounded=0;" parent="1" vertex="1">
          <mxGeometry x="450" y="310" width="190" height="20" as="geometry" />
        </mxCell>
        <mxCell id="NFEVLsGAsDUBxGmX6ojI-19" value="&lt;font style=&quot;font-size: 12px;&quot;&gt;κεντρική μονάδα επεξεργασίας (CPU)&lt;/font&gt;" style="rounded=0;whiteSpace=wrap;html=1;" parent="1" vertex="1">
          <mxGeometry x="280" y="370" width="200" height="30" as="geometry" />
        </mxCell>
        <mxCell id="NFEVLsGAsDUBxGmX6ojI-21" style="edgeStyle=orthogonalEdgeStyle;rounded=0;orthogonalLoop=1;jettySize=auto;html=1;entryX=0.545;entryY=0.002;entryDx=0;entryDy=0;entryPerimeter=0;" parent="1" source="NFEVLsGAsDUBxGmX6ojI-12" target="NFEVLsGAsDUBxGmX6ojI-17" edge="1">
          <mxGeometry relative="1" as="geometry" />
        </mxCell>
        <mxCell id="NFEVLsGAsDUBxGmX6ojI-22" value="&lt;font style=&quot;font-size: 12px;&quot;&gt;μνήμη RAM&lt;/font&gt;" style="rounded=0;whiteSpace=wrap;html=1;" parent="1" vertex="1">
          <mxGeometry x="301.25" y="320" width="85" height="30" as="geometry" />
        </mxCell>
        <mxCell id="NFEVLsGAsDUBxGmX6ojI-23" value="&lt;font style=&quot;font-size: 12px;&quot;&gt;κάρτα δικτύου&lt;/font&gt;" style="rounded=0;whiteSpace=wrap;html=1;" parent="1" vertex="1">
          <mxGeometry x="710" y="315" width="90" height="40" as="geometry" />
        </mxCell>
        <mxCell id="NFEVLsGAsDUBxGmX6ojI-24" value="&lt;font style=&quot;font-size: 12px;&quot;&gt;μονάδα επεξεργασίας γραφικών (GPU)&lt;/font&gt;" style="rounded=0;whiteSpace=wrap;html=1;" parent="1" vertex="1">
          <mxGeometry x="620" y="370" width="200" height="30" as="geometry" />
        </mxCell>
        <mxCell id="8aA1FvYfh0fUZP3tJRCF-3" style="edgeStyle=orthogonalEdgeStyle;rounded=0;orthogonalLoop=1;jettySize=auto;html=1;entryX=0.562;entryY=0;entryDx=0;entryDy=0;entryPerimeter=0;" parent="1" source="NFEVLsGAsDUBxGmX6ojI-4" target="NFEVLsGAsDUBxGmX6ojI-12" edge="1">
          <mxGeometry relative="1" as="geometry" />
        </mxCell>
      </root>
    </mxGraphModel>
  </diagram>
</mxfile>
